# AST/ASF file generated using VICON BodyLanguage
# -----------------------------------------------
:version 1.10
:name VICON
:units
  mass 1.0
  length 0.45
  angle deg
:documentation
   .ast/.asf automatically generated from VICON data using
   VICON BodyBuilder and BodyLanguage model FoxedUp or BRILLIANT.MOD
:root
   order TX TY TZ RX RY RZ
   axis XYZ
   position 0 0 0  
   orientation 0 0 0 
:bonedata
  begin
     id 1 
     name lhipjoint
     direction 0.603808 -0.713975 0.35448 
     length 2.2025 
     axis 0 0 0  XYZ
  end
  begin
     id 2 
     name lfemur
     direction 0.34202 -0.939693 0  
     length 6.55877  
     axis 0 0 20  XYZ
    dof rx ry rz
    limits (-160.0 20.0)
           (-70.0 70.0)
           (-60.0 70.0)
  end
  begin
     id 3 
     name ltibia
     direction 0.34202 -0.939693 0   
     length 6.80302   
     axis 0 0 20   XYZ
    dof rx
    limits (-10.0 170.0)
  end
  begin
     id 4 
     name lfoot
     direction 0.091848 -0.25235 0.963267   
     length 2.03446   
     axis -90 7.62852e-016 20   XYZ
    dof rx rz
    limits (-45.0 90.0)
           (-70.0 20.0)
  end
  begin
     id 5 
     name ltoes
     direction 1.53608e-011 -4.21925e-011 1   
     length 1.02033   
     axis -90 7.62852e-016 20   XYZ
    dof rx
    limits (-90.0 20.0)
  end
  begin
     id 6 
     name rhipjoint
     direction -0.587285 -0.724947 0.359928   
     length 2.16916  
     axis 0 0 0  XYZ 
  end
  begin
     id 7 
     name rfemur
     direction -0.34202 -0.939693 0   
     length 6.43173   
     axis 0 0 -20   XYZ
    dof rx ry rz
    limits (-160.0 20.0)
           (-70.0 70.0)
           (-70.0 60.0)
  end
  begin
     id 8 
     name rtibia
     direction -0.34202 -0.939693 0   
     length 6.70662   
     axis 0 0 -20   XYZ
    dof rx
    limits (-10.0 170.0)
 end
 begin
     id 9 
     name rfoot
     direction -0.11854 -0.325686 0.938018   
     length 2.0773  
     axis -90 -7.62852e-016 -20   XYZ
    dof rx rz
    limits (-45.0 90.0)
           (-20.0 70.0)
  end
  begin
     id 10 
     name rtoes
     direction -1.53547e-011 -4.21838e-011 1   
     length 1.03267   
     axis -90 -7.62852e-016 -20   XYZ
    dof rx
    limits (-90.0 20.0)
  end
  begin
     id 11 
     name lowerback
     direction -0.0286554 0.999539 0.0100613   
     length 2.08751   
     axis 0 0 0   XYZ
    dof rx ry rz
    limits (-20.0 45.0)
           (-30.0 30.0)
           (-30.0 30.0)
  end
  begin
     id 12 
     name upperback
     direction 0.0227093 0.999705 -0.00860929   
     length 2.08517   
     axis 0 0 0   XYZ
    dof rx ry rz
    limits (-20.0 45.0)
           (-30.0 30.0)
           (-30.0 30.0)
  end
  begin
     id 13 
     name thorax
     direction 0.0351627 0.999285 -0.013892   
     length 2.08412   
     axis 0 0 0   XYZ
    dof rx ry rz
    limits (-20.0 45.0)
           (-30.0 30.0)
           (-30.0 30.0)
  end
  begin
     id 14 
     name lowerneck
     direction -0.0696283 0.997344 0.0213922   
     length 1.44164   
     axis 0 0 0   XYZ
    dof rx ry rz
    limits (-20.0 45.0)
           (-30.0 30.0)
           (-30.0 30.0)
  end
  begin
     id 15 
     name upperneck
     direction 0.0531 0.990412 -0.127531   
     length 1.45022   
     axis 0 0 0   XYZ
    dof rx ry rz
    limits (-20.0 45.0)
           (-30.0 30.0)
           (-30.0 30.0)
  end
  begin
     id 16
     name head
     direction 0.0188154 0.998548 -0.0504727  
     length 1.45845  
     axis 0 0 0   XYZ
    dof rx ry rz
    limits (-20.0 45.0)
           (-30.0 30.0)
           (-30.0 30.0)
  end
  begin
     id 17 
     name lclavicle
     direction 0.961559 0.260051 0.088188  
     length 2.86057  
     axis 0 0 0   XYZ
    dof ry rz
    limits (-20.0 10.0)
           (0.0 20.0)
  end
  begin
     id 18 
     name lhumerus
     direction 1 -4.48959e-011 2.88185e-027   
     length 4.36901   
     axis 180 -30 -90   XYZ
    dof rx ry rz
    limits (-60.0 90.0)
           (-90.0 90.0)
           (-90.0 90.0)
  end
  begin
     id 19
     name lradius
     direction 1 -4.48965e-011 -3.92618e-028   
     length 3.21737   
     axis 180 -30 -90   XYZ
    dof rx
    limits (-10.0 170.0)
  end
  begin
     id 20
     name lwrist
     direction 1 -4.49037e-011 2.57246e-027   
     length 1.60869   
     axis -1.61769e-015 90 90   XYZ
    dof ry
    limits (-180.0 0.0)
 end
  begin
     id 21 
     name lhand
     direction 1 -4.48807e-011 5.12958e-027   
     length 0.564313   
     axis -3.27988e-015 90 90   XYZ
    dof rx rz
    limits (-90.0 90.0)
           (-45.0 45.0)
  end
  begin
     id 22 
     name lfingers
     direction 1 -4.48879e-011 1.02687e-026   
     length 0.454963   
     axis -6.5598e-015 90 90   XYZ
    dof rx
    limits (0.0 90.0)
  end
  begin
     id 23
     name lthumb
     direction 0.707107 -6.3475e-011 0.707107   
     length 0.653239   
     axis -90 45 2.19363e-014   XYZ
    dof rx rz
    limits (-45.0 45.0)
           (-45.0 45.0)
  end
  begin
     id 24 
     name rclavicle
     direction -0.954677 0.253915 0.155304   
     length 3.11497  
     axis 0 0 0   XYZ 
    dof ry rz
    limits (-10.0 20.0)
           (-20.0 0.0)
  end
  begin
     id 25 
     name rhumerus
     direction -1 -4.48958e-011 -8.20169e-028  
     length 4.34118   
     axis 180 30 90   XYZ
    dof rx ry rz
    limits (-90.0 60.0)
           (-90.0 90.0)
           (-90.0 90.0)
  end
  begin
     id 26 
     name rradius
     direction -1 -4.48978e-011 1.5676e-027   
     length 3.09531   
     axis 180 30 90   XYZ
    dof rx
    limits (-10.0 170.0)
  end
  begin
     id 27 
     name rwrist
     direction -1 -4.49001e-011 2.57123e-027   
     length 1.54765   
     axis -1.61769e-015 -90 -90   XYZ
    dof ry
    limits (-180.0 0.0)
  end
  begin
     id 28
     name rhand
     direction -1 -4.48847e-011 5.13225e-027   
     length 0.597446   
     axis -3.27988e-015 -90 -90   XYZ
    dof rx rz
    limits (-90.0 90.0)
           (-45.0 45.0)
  end
  begin
     id 29
     name rfingers
     direction -1 -4.49094e-011 1.02974e-026   
     length 0.481677   
     axis -6.5598e-015 -90 -90   XYZ
    dof rx
    limits (0.0 90.0)
  end
  begin
     id 30
     name rthumb
     direction -0.707107 -6.34859e-011 0.707107   
     length 0.691594   
     axis -90 -45 -2.19363e-014   XYZ
    dof rx rz
    limits (-45.0 45.0)
           (-45.0 45.0)
  end
:hierarchy
  begin
    root lhipjoint rhipjoint lowerback
    lhipjoint lfemur
    lfemur ltibia
    ltibia lfoot
    lfoot ltoes
    rhipjoint rfemur
    rfemur rtibia
    rtibia rfoot
    rfoot rtoes
    lowerback upperback
    upperback thorax
    thorax lowerneck lclavicle rclavicle
    lowerneck upperneck
    upperneck head
    lclavicle lhumerus
    lhumerus lradius
    lradius lwrist
    lwrist lhand lthumb
    lhand lfingers
    rclavicle rhumerus
    rhumerus rradius
    rradius rwrist
    rwrist rhand rthumb
    rhand rfingers
  end

#!OML:ASF I:\Acrobat_Osman\acrobat\cartwheel_test 2\Patient 1\Session 1\acrobat.ASF
:FULLY-SPECIFIED
:DEGREES
1647
root 5.84403 15.216 -12.4248 2.49671 4.58697 0.903106
lowerback 3.47131 -0.462137 -8.24794
upperback 1.46181 -0.865571 1.96675
thorax -0.275389 -0.47347 6.72798
lowerneck -3.26546 -15.2077 -16.9351
upperneck -1.60749 -19.7555 10.0438
head 2.63646 -9.72866 4.49902
rclavicle 1.92821e-014 -3.02153e-014
rhumerus -21.0473 -4.84801 -75.0776
rradius 22.5074
rwrist 26.585
rhand -10.5417 19.7803
rfingers 7.12502
rthumb 15.462 -9.6213
lclavicle 1.92821e-014 -3.02153e-014
lhumerus -36.1472 -18.2362 89.3687
lradius 71.5957
lwrist 24.8084
lhand -9.8678 49.8217
lfingers 7.12502
lthumb 16.111 799.172
rfemur -22.3371 -1.69456 24.2472
rtibia 47.7222
rfoot -23.1634 2.62895
rtoes -8.77926
lfemur -198.032 175.105 -203.267
ltibia 41.6088
lfoot -26.1145 -0.280934
ltoes -23.7031
1648
root 5.83779 15.2156 -12.416 2.49559 4.37538 1.22597
lowerback 3.74129 -0.55223 -8.4766
upperback 1.66918 -1.00872 2.16303
thorax -0.175935 -0.559427 7.0749
lowerneck -3.19014 -14.9964 -16.7131
upperneck -2.17196 -19.4804 10.2919
head 2.42893 -9.58773 4.60452
rclavicle 3.3048e-015 -5.56597e-015
rhumerus -26.4605 -11.7088 -73.2506
rradius 20.2505
rwrist 31.0413
rhand -10.8786 19.9745
rfingers 7.12502
rthumb 15.1375 -9.4519
lclavicle 3.3048e-015 -5.56597e-015
lhumerus -37.9208 -17.8806 89.1239
lradius 73.8197
lwrist 25.7196
lhand -9.79609 49.4188
lfingers 7.12502
lthumb 16.18 798.764
rfemur -23.6288 -3.35722 23.7417
rtibia 49.7988
rfoot -20.7496 4.73793
rtoes -7.80886
lfemur -197.902 175.604 -203.669
ltibia 41.5272
lfoot -25.9192 0.392418
ltoes -23.6482
1649
root 5.84091 15.2105 -12.4129 2.46946 4.09581 1.60373
lowerback 4.1034 -0.756193 -8.57549
upperback 1.89121 -1.30779 2.33149
thorax -0.0842282 -0.723787 7.32587
lowerneck -3.05631 -14.7728 -16.2093
upperneck -2.83696 -19.197 10.3274
head 2.13314 -9.44781 4.62484
rclavicle 6.26172e-015 -7.15625e-015
rhumerus -32.0356 -17.4343 -70.006
rradius 18.4182
rwrist 34.3155
rhand -12.4905 20.7418
rfingers 7.12502
rthumb 13.5843 -8.79505
lclavicle 6.26172e-015 -7.15625e-015
lhumerus -39.7502 -17.1911 88.6647
lradius 75.1232
lwrist 26.755
lhand -9.36082 48.0028
lfingers 7.12502
lthumb 16.5991 797.313
rfemur -25.194 -5.18909 23.1097
rtibia 52.2696
rfoot -18.6789 6.1011
rtoes -8.59953
lfemur -197.742 175.967 -204.187
ltibia 41.3831
lfoot -25.6869 0.759897
ltoes -22.7868
1650
root 5.85024 15.2055 -12.4115 2.46908 3.67076 2.1164
lowerback 4.3941 -1.02199 -8.70346
upperback 2.09511 -1.68565 2.48188
thorax 0.0478921 -0.929868 7.57695
lowerneck -2.80414 -14.5005 -15.8467
upperneck -3.44888 -18.8628 10.3988
head 1.84708 -9.2864 4.68236
rclavicle 3.3197e-014 -1.47101e-014
rhumerus -37.6853 -20.5933 -66.2252
rradius 17.3757
rwrist 35.3432
rhand -12.7039 20.3272
rfingers 7.12502
rthumb 13.3786 -9.22326
lclavicle 3.3197e-014 -1.47101e-014
lhumerus -41.6242 -16.3333 88.161
lradius 75.6031
lwrist 27.6147
lhand -8.43481 47.1845
lfingers 7.12502
lthumb 17.4904 796.418
rfemur -27.0096 -6.92474 22.2826
rtibia 55.0142
rfoot -17.043 6.24377
rtoes -14.6552
lfemur -197.526 176.145 -204.857
ltibia 41.1135
lfoot -25.5724 0.781085
ltoes -21.368
1651
root 5.85728 15.2064 -12.4024 2.40632 3.08474 2.805
lowerback 4.56729 -1.26775 -8.94784
upperback 2.29538 -2.03242 2.53622
thorax 0.241208 -1.12448 7.78833
lowerneck -2.44729 -14.2186 -15.6713
upperneck -3.7721 -18.5382 10.6787
head 1.67248 -9.13521 4.81303
rclavicle 1.21259e-014 3.18055e-015
rhumerus -42.9884 -21.0682 -63.1116
rradius 17.0663
rwrist 34.716
rhand -11.801 19.8955
rfingers 7.12502
rthumb 14.2488 -9.59574
lclavicle 1.21259e-014 3.18055e-015
lhumerus -43.4726 -15.7024 87.6475
lradius 75.1732
lwrist 28.4029
lhand -7.55745 47.3763
lfingers 7.12502
lthumb 18.3346 796.532
rfemur -28.7972 -8.37669 21.2416
rtibia 57.8365
rfoot -15.7616 5.7905
rtoes -21.9682
lfemur -197.081 176.005 -205.632
ltibia 40.6667
lfoot -25.6748 0.490591
ltoes -19.3604
1652
root 5.85995 15.217 -12.3843 2.19134 2.44149 3.58771
lowerback 4.7699 -1.54658 -9.2466
upperback 2.5711 -2.42655 2.55404
thorax 0.512513 -1.35148 7.99195
lowerneck -2.34294 -14.017 -15.4862
upperneck -3.88651 -18.2871 10.819
head 1.59177 -9.01642 4.86669
rclavicle 5.66536e-015 2.38542e-015
rhumerus -47.2632 -19.9422 -60.8952
rradius 16.8801
rwrist 34.2653
rhand -9.21597 18.4283
rfingers 7.12502
rthumb 16.7385 -10.8701
lclavicle 5.66536e-015 2.38542e-015
lhumerus -45.1486 -15.1898 87.1752
lradius 73.8994
lwrist 28.8073
lhand -7.23623 48.0678
lfingers 7.12502
lthumb 18.6436 797.194
rfemur -30.3087 -9.62478 20.063
rtibia 60.5456
rfoot -15.2437 5.57833
rtoes -25.1505
lfemur -196.351 175.612 -206.432
ltibia 40.0433
lfoot -25.7263 0.145383
ltoes -17.3828
